<svg width="77" height="80" viewBox="0 0 77 80" fill="none" xmlns="http://www.w3.org/2000/svg">
<g filter="url(#filter0_dd_1002_154)">
<path fill-rule="evenodd" clip-rule="evenodd" d="M17 32.1117C17 42.055 24.2217 50.3233 33.6667 52V37.555H28.6667V32H33.6667V27.555C33.6667 22.555 36.8883 19.7783 41.445 19.7783C42.8883 19.7783 44.445 20 45.8883 20.2217V25.3333H43.3333C40.8883 25.3333 40.3333 26.555 40.3333 28.1117V32H45.6667L44.7783 37.555H40.3333V52C49.7783 50.3233 57 42.0567 57 32.1117C57 21.05 48 12 37 12C26 12 17 21.05 17 32.1117Z" fill="white"/>
</g>
<defs>
<filter id="filter0_dd_1002_154" x="-3" y="0" width="80" height="80" filterUnits="userSpaceOnUse" color-interpolation-filters="sRGB">
<feFlood flood-opacity="0" result="BackgroundImageFix"/>
<feColorMatrix in="SourceAlpha" type="matrix" values="0 0 0 0 0 0 0 0 0 0 0 0 0 0 0 0 0 0 127 0" result="hardAlpha"/>
<feMorphology radius="4" operator="erode" in="SourceAlpha" result="effect1_dropShadow_1002_154"/>
<feOffset dy="8"/>
<feGaussianBlur stdDeviation="12"/>
<feColorMatrix type="matrix" values="0 0 0 0 0.0941176 0 0 0 0 0.152941 0 0 0 0 0.294118 0 0 0 0.08 0"/>
<feBlend mode="normal" in2="BackgroundImageFix" result="effect1_dropShadow_1002_154"/>
<feColorMatrix in="SourceAlpha" type="matrix" values="0 0 0 0 0 0 0 0 0 0 0 0 0 0 0 0 0 0 127 0" result="hardAlpha"/>
<feMorphology radius="6" operator="erode" in="SourceAlpha" result="effect2_dropShadow_1002_154"/>
<feOffset dy="6"/>
<feGaussianBlur stdDeviation="6"/>
<feColorMatrix type="matrix" values="0 0 0 0 0.0941176 0 0 0 0 0.152941 0 0 0 0 0.294118 0 0 0 0.12 0"/>
<feBlend mode="normal" in2="effect1_dropShadow_1002_154" result="effect2_dropShadow_1002_154"/>
<feBlend mode="normal" in="SourceGraphic" in2="effect2_dropShadow_1002_154" result="shape"/>
</filter>
</defs>
</svg>
