<svg width="77" height="80" viewBox="0 0 77 80" fill="none" xmlns="http://www.w3.org/2000/svg">
<g filter="url(#filter0_dd_1002_156)">
<path d="M37 12C25.9554 12 17 20.9554 17 32C17 43.0446 25.9554 52 37 52C48.0446 52 57 43.0446 57 32C57 20.9554 48.0446 12 37 12ZM46.6116 27.0759C46.625 27.2857 46.625 27.5045 46.625 27.7188C46.625 34.2723 41.6339 41.8214 32.5134 41.8214C29.7009 41.8214 27.0938 41.0045 24.8973 39.5982C25.2991 39.6429 25.683 39.6607 26.0938 39.6607C28.4152 39.6607 30.5491 38.875 32.25 37.5446C30.0714 37.5 28.2411 36.0714 27.6161 34.1071C28.3795 34.2188 29.067 34.2188 29.8527 34.0179C28.7309 33.79 27.7227 33.1807 26.9992 32.2937C26.2757 31.4066 25.8816 30.2965 25.8839 29.1518V29.0893C26.5402 29.4598 27.3125 29.6875 28.1205 29.7188C27.4413 29.266 26.8842 28.6527 26.4987 27.9332C26.1132 27.2136 25.9113 26.4101 25.9107 25.5938C25.9107 24.6696 26.1518 23.8259 26.5848 23.0938C27.8299 24.6265 29.3836 25.8801 31.1449 26.7731C32.9062 27.666 34.8357 28.1784 36.808 28.2768C36.1071 24.9063 38.625 22.1786 41.6518 22.1786C43.0804 22.1786 44.3661 22.7768 45.2723 23.7411C46.3929 23.5313 47.4643 23.1116 48.4196 22.5491C48.0491 23.6964 47.2723 24.6652 46.2411 25.2768C47.2411 25.1696 48.2054 24.8929 49.0982 24.5045C48.4241 25.4955 47.5804 26.375 46.6116 27.0759V27.0759Z" fill="white"/>
</g>
<defs>
<filter id="filter0_dd_1002_156" x="-3" y="0" width="80" height="80" filterUnits="userSpaceOnUse" color-interpolation-filters="sRGB">
<feFlood flood-opacity="0" result="BackgroundImageFix"/>
<feColorMatrix in="SourceAlpha" type="matrix" values="0 0 0 0 0 0 0 0 0 0 0 0 0 0 0 0 0 0 127 0" result="hardAlpha"/>
<feMorphology radius="4" operator="erode" in="SourceAlpha" result="effect1_dropShadow_1002_156"/>
<feOffset dy="8"/>
<feGaussianBlur stdDeviation="12"/>
<feColorMatrix type="matrix" values="0 0 0 0 0.0941176 0 0 0 0 0.152941 0 0 0 0 0.294118 0 0 0 0.08 0"/>
<feBlend mode="normal" in2="BackgroundImageFix" result="effect1_dropShadow_1002_156"/>
<feColorMatrix in="SourceAlpha" type="matrix" values="0 0 0 0 0 0 0 0 0 0 0 0 0 0 0 0 0 0 127 0" result="hardAlpha"/>
<feMorphology radius="6" operator="erode" in="SourceAlpha" result="effect2_dropShadow_1002_156"/>
<feOffset dy="6"/>
<feGaussianBlur stdDeviation="6"/>
<feColorMatrix type="matrix" values="0 0 0 0 0.0941176 0 0 0 0 0.152941 0 0 0 0 0.294118 0 0 0 0.12 0"/>
<feBlend mode="normal" in2="effect1_dropShadow_1002_156" result="effect2_dropShadow_1002_156"/>
<feBlend mode="normal" in="SourceGraphic" in2="effect2_dropShadow_1002_156" result="shape"/>
</filter>
</defs>
</svg>
