<svg width="25" height="24" viewBox="0 0 25 24" fill="none" xmlns="http://www.w3.org/2000/svg">
<path d="M19.5508 4.91C18.634 3.98393 17.542 3.24967 16.3384 2.75005C15.1349 2.25043 13.8439 1.99546 12.5408 2C7.08078 2 2.63078 6.45 2.63078 11.91C2.63078 13.66 3.09078 15.36 3.95078 16.86L2.55078 22L7.80078 20.62C9.25078 21.41 10.8808 21.83 12.5408 21.83C18.0008 21.83 22.4508 17.38 22.4508 11.92C22.4508 9.27 21.4208 6.78 19.5508 4.91ZM12.5408 20.15C11.0608 20.15 9.61078 19.75 8.34078 19L8.04078 18.82L4.92078 19.64L5.75078 16.6L5.55078 16.29C4.72853 14.977 4.29192 13.4592 4.29078 11.91C4.29078 7.37 7.99078 3.67 12.5308 3.67C14.7308 3.67 16.8008 4.53 18.3508 6.09C19.1183 6.85396 19.7265 7.76266 20.1402 8.76342C20.5539 9.76419 20.7648 10.8371 20.7608 11.92C20.7808 16.46 17.0808 20.15 12.5408 20.15ZM17.0608 13.99C16.8108 13.87 15.5908 13.27 15.3708 13.18C15.1408 13.1 14.9808 13.06 14.8108 13.3C14.6408 13.55 14.1708 14.11 14.0308 14.27C13.8908 14.44 13.7408 14.46 13.4908 14.33C13.2408 14.21 12.4408 13.94 11.5008 13.1C10.7608 12.44 10.2708 11.63 10.1208 11.38C9.98078 11.13 10.1008 11 10.2308 10.87C10.3408 10.76 10.4808 10.58 10.6008 10.44C10.7208 10.3 10.7708 10.19 10.8508 10.03C10.9308 9.86 10.8908 9.72 10.8308 9.6C10.7708 9.48 10.2708 8.26 10.0708 7.76C9.87078 7.28 9.66078 7.34 9.51078 7.33H9.03078C8.86078 7.33 8.60078 7.39 8.37078 7.64C8.15078 7.89 7.51078 8.49 7.51078 9.71C7.51078 10.93 8.40078 12.11 8.52078 12.27C8.64078 12.44 10.2708 14.94 12.7508 16.01C13.3408 16.27 13.8008 16.42 14.1608 16.53C14.7508 16.72 15.2908 16.69 15.7208 16.63C16.2008 16.56 17.1908 16.03 17.3908 15.45C17.6008 14.87 17.6008 14.38 17.5308 14.27C17.4608 14.16 17.3108 14.11 17.0608 13.99Z" fill="#121013"/>
</svg>
