<svg width="77" height="80" viewBox="0 0 77 80" fill="none" xmlns="http://www.w3.org/2000/svg">
<g filter="url(#filter0_dd_1002_158)">
<g clip-path="url(#clip0_1002_158)">
<path d="M43.25 32C43.25 33.6576 42.5915 35.2473 41.4194 36.4194C40.2473 37.5915 38.6576 38.25 37 38.25C35.3424 38.25 33.7527 37.5915 32.5806 36.4194C31.4085 35.2473 30.75 33.6576 30.75 32C30.75 31.6438 30.7875 31.2958 30.8521 30.9583H28.6667V39.2854C28.6667 39.8646 29.1354 40.3333 29.7146 40.3333H44.2875C44.5651 40.3328 44.8311 40.2221 45.0271 40.0257C45.2232 39.8292 45.3333 39.563 45.3333 39.2854V30.9583H43.1479C43.2125 31.2958 43.25 31.6438 43.25 32ZM37 36.1667C37.5473 36.1665 38.0892 36.0586 38.5948 35.849C39.1004 35.6394 39.5598 35.3323 39.9467 34.9452C40.3336 34.5581 40.6405 34.0986 40.8498 33.5929C41.0591 33.0872 41.1668 32.5452 41.1667 31.9979C41.1665 31.4506 41.0586 30.9087 40.849 30.4031C40.6394 29.8975 40.3323 29.4381 39.9452 29.0512C39.5581 28.6643 39.0986 28.3574 38.5929 28.1481C38.0872 27.9388 37.5452 27.8311 36.9979 27.8312C35.8926 27.8315 34.8326 28.2709 34.0512 29.0527C33.2698 29.8345 32.831 30.8947 32.8312 32C32.8315 33.1053 33.2709 34.1653 34.0527 34.9467C34.8345 35.7281 35.8947 36.1669 37 36.1667ZM42 27.625H44.4979C44.6639 27.625 44.8231 27.5592 44.9406 27.4421C45.0581 27.3249 45.1244 27.166 45.125 27V24.5021C45.125 24.3358 45.0589 24.1763 44.9413 24.0587C44.8237 23.9411 44.6642 23.875 44.4979 23.875H42C41.8337 23.875 41.6742 23.9411 41.5566 24.0587C41.439 24.1763 41.3729 24.3358 41.3729 24.5021V27C41.375 27.3438 41.6563 27.625 42 27.625ZM37 12C31.6957 12 26.6086 14.1071 22.8579 17.8579C19.1071 21.6086 17 26.6957 17 32C17 37.3043 19.1071 42.3914 22.8579 46.1421C26.6086 49.8929 31.6957 52 37 52C39.6264 52 42.2272 51.4827 44.6537 50.4776C47.0802 49.4725 49.285 47.9993 51.1421 46.1421C52.9993 44.285 54.4725 42.0802 55.4776 39.6537C56.4827 37.2272 57 34.6264 57 32C57 29.3736 56.4827 26.7728 55.4776 24.3463C54.4725 21.9198 52.9993 19.715 51.1421 17.8579C49.285 16.0007 47.0802 14.5275 44.6537 13.5224C42.2272 12.5173 39.6264 12 37 12ZM47.4167 40.1021C47.4167 41.375 46.375 42.4167 45.1021 42.4167H28.8979C27.625 42.4167 26.5833 41.375 26.5833 40.1021V23.8979C26.5833 22.625 27.625 21.5833 28.8979 21.5833H45.1021C46.375 21.5833 47.4167 22.625 47.4167 23.8979V40.1021Z" fill="white"/>
</g>
</g>
<defs>
<filter id="filter0_dd_1002_158" x="-3" y="0" width="80" height="80" filterUnits="userSpaceOnUse" color-interpolation-filters="sRGB">
<feFlood flood-opacity="0" result="BackgroundImageFix"/>
<feColorMatrix in="SourceAlpha" type="matrix" values="0 0 0 0 0 0 0 0 0 0 0 0 0 0 0 0 0 0 127 0" result="hardAlpha"/>
<feMorphology radius="4" operator="erode" in="SourceAlpha" result="effect1_dropShadow_1002_158"/>
<feOffset dy="8"/>
<feGaussianBlur stdDeviation="12"/>
<feColorMatrix type="matrix" values="0 0 0 0 0.0941176 0 0 0 0 0.152941 0 0 0 0 0.294118 0 0 0 0.08 0"/>
<feBlend mode="normal" in2="BackgroundImageFix" result="effect1_dropShadow_1002_158"/>
<feColorMatrix in="SourceAlpha" type="matrix" values="0 0 0 0 0 0 0 0 0 0 0 0 0 0 0 0 0 0 127 0" result="hardAlpha"/>
<feMorphology radius="6" operator="erode" in="SourceAlpha" result="effect2_dropShadow_1002_158"/>
<feOffset dy="6"/>
<feGaussianBlur stdDeviation="6"/>
<feColorMatrix type="matrix" values="0 0 0 0 0.0941176 0 0 0 0 0.152941 0 0 0 0 0.294118 0 0 0 0.12 0"/>
<feBlend mode="normal" in2="effect1_dropShadow_1002_158" result="effect2_dropShadow_1002_158"/>
<feBlend mode="normal" in="SourceGraphic" in2="effect2_dropShadow_1002_158" result="shape"/>
</filter>
<clipPath id="clip0_1002_158">
<rect x="17" y="12" width="40" height="40" rx="20" fill="white"/>
</clipPath>
</defs>
</svg>
