<svg width="77" height="80" viewBox="0 0 77 80" fill="none" xmlns="http://www.w3.org/2000/svg">
<g filter="url(#filter0_dd_1002_160)">
<g clip-path="url(#clip0_1002_160)">
<path d="M40.3396 31.6521L35.6604 29.4688C35.2521 29.2792 34.9167 29.4917 34.9167 29.9437V34.0563C34.9167 34.5083 35.2521 34.7208 35.6604 34.5312L40.3375 32.3479C40.7479 32.1562 40.7479 31.8438 40.3396 31.6521ZM37 12C25.9542 12 17 20.9542 17 32C17 43.0458 25.9542 52 37 52C48.0458 52 57 43.0458 57 32C57 20.9542 48.0458 12 37 12ZM37 40.125C26.7625 40.125 26.5833 39.2021 26.5833 32C26.5833 24.7979 26.7625 23.875 37 23.875C47.2375 23.875 47.4167 24.7979 47.4167 32C47.4167 39.2021 47.2375 40.125 37 40.125Z" fill="white"/>
</g>
</g>
<defs>
<filter id="filter0_dd_1002_160" x="-3" y="0" width="80" height="80" filterUnits="userSpaceOnUse" color-interpolation-filters="sRGB">
<feFlood flood-opacity="0" result="BackgroundImageFix"/>
<feColorMatrix in="SourceAlpha" type="matrix" values="0 0 0 0 0 0 0 0 0 0 0 0 0 0 0 0 0 0 127 0" result="hardAlpha"/>
<feMorphology radius="4" operator="erode" in="SourceAlpha" result="effect1_dropShadow_1002_160"/>
<feOffset dy="8"/>
<feGaussianBlur stdDeviation="12"/>
<feColorMatrix type="matrix" values="0 0 0 0 0.0941176 0 0 0 0 0.152941 0 0 0 0 0.294118 0 0 0 0.08 0"/>
<feBlend mode="normal" in2="BackgroundImageFix" result="effect1_dropShadow_1002_160"/>
<feColorMatrix in="SourceAlpha" type="matrix" values="0 0 0 0 0 0 0 0 0 0 0 0 0 0 0 0 0 0 127 0" result="hardAlpha"/>
<feMorphology radius="6" operator="erode" in="SourceAlpha" result="effect2_dropShadow_1002_160"/>
<feOffset dy="6"/>
<feGaussianBlur stdDeviation="6"/>
<feColorMatrix type="matrix" values="0 0 0 0 0.0941176 0 0 0 0 0.152941 0 0 0 0 0.294118 0 0 0 0.12 0"/>
<feBlend mode="normal" in2="effect1_dropShadow_1002_160" result="effect2_dropShadow_1002_160"/>
<feBlend mode="normal" in="SourceGraphic" in2="effect2_dropShadow_1002_160" result="shape"/>
</filter>
<clipPath id="clip0_1002_160">
<rect x="17" y="12" width="40" height="40" rx="20" fill="white"/>
</clipPath>
</defs>
</svg>
